<svg width="16" height="16" viewBox="0 0 16 16" fill="none" xmlns="http://www.w3.org/2000/svg">
  <path d="M8 0C3.58 0 0 3.58 0 8C0 11.54 2.29 14.36 5.47 15.35C5.87 15.42 6 15.15 6 14.92C6 14.71 6 14.2 6 13.55C3.87 13.91 3.37 12.78 3.37 12.78C3.03 11.87 2.5 11.62 2.5 11.62C1.77 11.14 2.55 11.15 2.55 11.15C3.34 11.21 3.75 12.05 3.75 12.05C4.42 13.23 5.52 12.92 6 12.75C6.08 12.24 6.27 11.92 6.47 11.73C4.74 11.54 2.88 10.83 2.88 7.72C2.88 6.84 3.22 6.12 3.75 5.59C3.67 5.39 3.37 4.55 3.82 3.42C3.82 3.42 4.58 3.2 6 4.19C6.66 4 7.34 3.93 8 3.93C8.66 3.93 9.34 4 10 4.19C11.42 3.2 12.18 3.42 12.18 3.42C12.63 4.55 12.33 5.39 12.25 5.59C12.78 6.12 13.12 6.84 13.12 7.72C13.12 10.84 11.26 11.53 9.53 11.73C9.8 12 10 12.45 10 13.08C10 14 10 14.62 10 14.92C10 15.15 10.13 15.43 10.53 15.35C13.71 14.36 16 11.54 16 8C16 3.58 12.42 0 8 0Z" fill="white"/>
</svg>
